<?xml version="1.0" encoding="UTF-8"?>
<svg width="103px" height="137px" viewBox="0 0 103 137" version="1.1" xmlns="http://www.w3.org/2000/svg" xmlns:xlink="http://www.w3.org/1999/xlink">
    <!-- Generator: Sketch 39.1 (31720) - http://www.bohemiancoding.com/sketch -->
    <title>Group</title>
    <desc>Created with Sketch.</desc>
    <defs></defs>
    <g id="Page-1" stroke="none" stroke-width="1" fill="none" fill-rule="evenodd">
        <g id="application">
            <g id="Page-1">
                <g id="enonic">
                    <g id="Page-1">
                        <g id="Group">
                            <path d="M51.0601526,136.449096 C81.5839818,118.800544 102.120305,85.814071 102.120305,48.0334 C102.120305,34.3670048 99.4331589,21.3279231 94.5581607,9.41520809 C81.5154691,3.37246198 66.9821953,0 51.6608603,0 C35.7550523,0 20.698578,3.63467269 7.27745518,10.1183798 C2.58263604,21.8403188 0,34.6354016 0,48.0334 C0,85.814071 20.5363234,118.800544 51.0601526,136.449096 L51.0601526,136.449096 L51.0601526,136.449096 Z" id="Oval-1-Copy-5" fill="#FF4D39"></path>
                            <path d="M44.866242,97.4091392 C43.762208,94.858661 42.0636943,92.3931987 41.1295117,91.883103 C38.4968153,90.4378322 34.5053078,90.7778958 30.8535032,92.5632307 L27.626327,94.2635493 L23.9745223,90.522848 L20.3227177,86.7821467 L21.6815287,83.1264612 C24.6539278,75.3900107 22.700637,70.8841658 15.566879,68.7587673 L12,67.738576 L12.254777,62.2125398 L12.5095542,56.6865037 L15.9065817,55.4962805 C21.0021232,53.7959617 23.3800425,50.650372 22.8704883,46.399575 C22.700637,44.4442083 22.0212315,41.6386823 21.3418258,40.1934113 C20.237792,37.4729012 20.3227177,37.3028693 23.5498938,33.9872477 C25.3333333,32.116897 27.2866242,30.58661 27.881104,30.58661 C28.3906582,30.58661 30.5138005,31.3517535 32.552017,32.2019128 C38.836518,34.922423 43.0828025,32.8820403 45.4607218,25.9107333 L46.6496815,22.5100957 L51.8301487,22.2550478 L57.0955413,22 L59.2186837,26.7608927 C60.8322718,30.501594 61.9363057,31.7768332 64.2292993,32.7120085 C66.9469215,33.9022317 67.626327,33.8172157 72.0424628,32.2019128 L76.7983015,30.4165782 L80.4501062,33.9872477 L84.1868365,37.642933 L82.4883227,40.8735388 C79.0912952,47.5897982 80.9596603,52.6057385 87.7537155,55.2412327 L91.4904458,56.7715197 L91.745223,62.2125398 L92,67.738576 L88.433121,68.7587673 C81.2144373,70.9691817 79.0063695,76.325186 82.4883227,83.2114772 L84.1868365,86.4420828 L80.1953292,90.3528162 L76.2038217,94.2635493 L73.2314225,92.6482465 C66.522293,88.9925612 60.9171975,91.2879915 58.7091295,98.5143465 L57.6900212,102 L52.254777,102 L46.9044587,102 L44.866242,97.4091392 L44.866242,97.4091392 L44.866242,97.4091392 Z M58.5392782,75.1349628 C65.8428875,71.6493092 68.6454352,62.1275238 64.3991507,54.901169 C59.3036093,46.1445272 48.0084925,45.2093518 41.2144373,52.9458023 C31.0233545,64.5929862 44.4416137,81.7662062 58.5392782,75.1349628 L58.5392782,75.1349628 L58.5392782,75.1349628 Z" id="Shape" stroke="#979797" fill="#FFFFFF"></path>
                        </g>
                    </g>
                </g>
            </g>
        </g>
    </g>
</svg>