<?xml version="1.0" standalone="no"?>
<!DOCTYPE svg PUBLIC "-//W3C//DTD SVG 20010904//EN"
 "http://www.w3.org/TR/2001/REC-SVG-20010904/DTD/svg10.dtd">
<svg version="1.0" xmlns="http://www.w3.org/2000/svg"
 width="2048.000000pt" height="771.000000pt" viewBox="0 0 2048.000000 771.000000"
 preserveAspectRatio="xMidYMid meet">

<g transform="translate(0.000000,771.000000) scale(0.100000,-0.100000)" stroke="none">
<path fill="#3d3d3d" d="M0 3855 l0 -3855 980 0 980 0 0 1324 0 1325 818 4 c939 5 991 8 1359
94 l112 26 60 181 c33 100 145 444 250 766 104 322 268 828 365 1125 96 297
265 817 375 1155 l199 615 -56 80 c-122 176 -317 380 -480 504 -330 250 -757
414 -1237 476 -252 32 -432 35 -2072 35 l-1653 0 0 -3855z m2853 2355 c604
-39 901 -247 1029 -720 29 -108 36 -388 14 -528 -41 -259 -151 -469 -315 -599
-120 -94 -332 -172 -551 -203 -52 -8 -275 -14 -577 -17 l-493 -5 0 1041 0
1041 373 0 c204 0 439 -5 520 -10z"/>
<path fill="#5a0fc8" d="M9021 7558 c-27 -84 -146 -450 -265 -813 -667 -2051 -1232 -3786
-1268 -3894 l-40 -123 -135 263 c-73 145 -331 654 -571 1131 -240 477 -440
864 -443 860 -3 -4 -62 -182 -132 -397 -69 -214 -299 -925 -511 -1579 -212
-653 -386 -1192 -386 -1197 0 -6 201 -355 447 -777 246 -422 481 -826 522
-899 l76 -132 1015 -1 1016 0 41 127 c23 71 333 1014 688 2098 355 1084 664
2026 687 2095 22 69 44 128 47 133 4 4 144 -428 310 -960 574 -1831 1091
-3484 1091 -3489 0 -2 458 -4 1018 -4 l1018 0 10 27 c15 39 670 1665 924 2293
253 627 1354 3357 1826 4529 189 469 344 855 344 857 0 2 -463 4 -1028 4
l-1029 0 -15 -37 c-8 -21 -318 -747 -688 -1613 -370 -866 -839 -1966 -1043
-2445 -204 -478 -373 -873 -376 -877 -4 -4 -154 480 -335 1075 -181 595 -411
1354 -512 1687 -101 333 -293 965 -427 1405 l-242 800 -792 3 -791 2 -51 -152z"/>
<path fill="#3d3d3d" d="M17493 7498 c-740 -1872 -926 -2345 -926 -2353 0 -5 181 -516 401
-1133 221 -618 402 -1126 402 -1128 0 -2 -384 -5 -852 -6 l-853 -3 -292 -740
c-161 -406 -293 -743 -293 -747 0 -4 622 -8 1383 -8 l1382 0 244 -683 c134
-375 247 -685 251 -690 3 -4 485 -6 1071 -5 l1065 3 -337 895 c-2009 5337
-2552 6777 -2558 6788 -4 8 -40 -70 -88 -190z"/>
</g>
</svg>
