<?xml version="1.0" standalone="no"?>
<!DOCTYPE svg PUBLIC "-//W3C//DTD SVG 20010904//EN"
 "http://www.w3.org/TR/2001/REC-SVG-20010904/DTD/svg10.dtd">
<svg version="1.0" xmlns="http://www.w3.org/2000/svg"
 width="1096.000000pt" height="1096.000000pt" viewBox="0 0 1096.000000 1096.000000"
 preserveAspectRatio="xMidYMid meet">
<metadata>
Created by potrace 1.11, written by Peter Selinger 2001-2013
</metadata>
<g transform="translate(0.000000,1096.000000) scale(0.100000,-0.100000)"
fill="#000000" stroke="none">
<path d="M5060 10949 c-1079 -63 -2090 -317 -3041 -763 l-77 -36 -42 -107
c-434 -1122 -616 -2409 -509 -3623 115 -1314 527 -2543 1225 -3652 546 -867
1257 -1629 2094 -2243 236 -173 703 -475 736 -475 31 0 512 312 739 479 1309
964 2274 2244 2842 3766 628 1686 667 3615 106 5340 -62 189 -187 530 -206
558 -14 21 -140 79 -397 182 -778 313 -1574 496 -2460 565 -186 15 -822 20
-1010 9z m955 -2037 c181 -408 246 -494 439 -587 250 -119 304 -115 781 62
126 47 237 87 246 90 22 6 573 -535 560 -551 -23 -28 -172 -339 -194 -406
-106 -313 -59 -580 137 -775 115 -114 230 -180 508 -291 l147 -59 5 -60 c14
-147 37 -758 29 -765 -4 -4 -69 -24 -143 -45 -74 -20 -173 -53 -219 -71 -370
-148 -552 -423 -511 -770 17 -139 67 -282 165 -471 l84 -162 -295 -288 c-163
-158 -299 -289 -303 -291 -4 -1 -75 34 -157 78 -83 44 -186 93 -230 109 -307
112 -579 69 -782 -123 -146 -138 -217 -283 -317 -638 l-16 -58 -407 0 -407 0
-94 213 c-106 237 -176 366 -259 476 -66 87 -116 122 -227 158 -69 22 -98 26
-215 27 -145 1 -197 -8 -350 -56 -86 -27 -283 -118 -368 -170 -18 -11 -38 -18
-45 -15 -7 2 -133 128 -279 279 l-267 275 70 194 c107 291 131 394 132 559 1
157 -13 224 -71 334 -99 188 -295 312 -652 412 -74 20 -139 40 -143 44 -8 7
15 617 29 767 l5 61 162 58 c206 73 312 123 409 196 126 96 210 219 243 359
40 170 -3 457 -111 741 -56 148 -58 194 -12 264 48 72 321 343 407 402 46 32
85 52 102 52 29 0 81 -18 345 -118 89 -34 193 -69 230 -78 82 -19 247 -22 319
-5 87 21 191 78 261 143 127 119 200 249 299 528 62 175 62 175 96 182 30 7
523 33 689 36 l65 2 110 -248z"/>
<path d="M5405 7173 c-191 -25 -406 -111 -562 -226 -87 -65 -214 -192 -281
-282 -68 -91 -155 -267 -186 -376 -63 -224 -48 -493 40 -715 169 -427 573
-735 1014 -773 377 -32 755 118 987 390 160 188 246 387 281 647 47 357 -83
731 -347 1001 -217 221 -510 344 -811 339 -58 0 -118 -3 -135 -5z"/>
</g>
</svg>
