<?xml version="1.0" encoding="UTF-8"?>
<svg width="650px" height="650px" viewBox="0 0 650 650" version="1.1" xmlns="http://www.w3.org/2000/svg" xmlns:xlink="http://www.w3.org/1999/xlink">
    <!-- Generator: Sketch 39.1 (31720) - http://www.bohemiancoding.com/sketch -->
    <title>offline</title>
    <desc>Created with Sketch.</desc>
    <defs>
        <rect id="path-1" x="0" y="0" width="650" height="649"></rect>
        <mask id="mask-2" maskContentUnits="userSpaceOnUse" maskUnits="objectBoundingBox" x="0" y="0" width="650" height="649" fill="white">
            <use xlink:href="#path-1"></use>
        </mask>
    </defs>
    <g id="Page-1" stroke="none" stroke-width="1" fill="none" fill-rule="evenodd">
        <g id="offline" transform="translate(-3.000000, 1.000000)">
            <g id="Circle">
                <use id="Rectangle" stroke="#979797" mask="url(#mask-2)" stroke-width="2" fill="#D8D8D8" opacity="0" xlink:href="#path-1"></use>
                <circle id="Oval" stroke="#D0011B" stroke-width="50" fill="#FFFFFF" cx="328" cy="324" r="300"></circle>
            </g>
            <g id="wifi" transform="translate(86.000000, 149.000000)">
                <path d="M218.503,11.369 C312.229,4.619 408.125,39.686 475.018,105.732 C483.783,114.755 482.64,130.539 473.393,138.808 C464.9,148.82 447.892,148.997 439.127,139.244 C381.903,84.153 301.109,54.363 221.777,60.288 C155.872,64.528 92.028,92.916 44.205,138.384 C39.952,142.731 34.521,146.3 28.267,146.606 C12.601,148.443 -1.887,132.07 1.494,116.746 C2.448,111.245 5.981,106.663 10.021,102.999 C66.009,49.392 141.172,16.469 218.503,11.369 L218.503,11.369 Z" id="Shape" fill="#4A4A4A"></path>
                <path d="M216.183,103.282 C287.989,95.472 362.552,121.94 413.366,173.25 C421.305,182.32 420.316,197.151 411.494,205.302 C403.448,215.149 387.229,216.255 378.111,207.326 C345.577,175.252 301.593,154.886 255.985,151.552 C200.598,146.958 144.011,167.972 104.574,206.997 C95.48,216.609 78.541,215.515 70.356,205.289 C61.533,196.962 60.803,181.73 69.272,172.908 C108.356,133.802 161.209,108.924 216.183,103.282 L216.183,103.282 Z" id="Shape" fill="#4A4A4A"></path>
                <path d="M226.796,193.97 C272.11,189.471 318.957,206.822 350.489,239.639 C359.123,248.626 358.123,264.093 349.028,272.409 C340.771,282.375 324.221,283.047 315.246,273.705 C297.472,255.46 272.852,243.927 247.362,242.537 C218.433,240.475 189.161,251.902 168.618,272.232 C163.565,277.911 156.061,281.397 148.381,280.491 C130.548,279.241 118.168,255.435 130.453,241.147 C155.26,214.243 190.492,197.575 226.796,193.97 L226.796,193.97 Z" id="Shape" fill="#4A4A4A"></path>
                <path d="M233.781,278.651 C262.982,273.751 292.618,297.864 293.561,327.475 C296.27,356.511 270.638,384.064 241.498,383.426 C215.301,384.334 191.023,362.601 188.726,336.546 C184.991,309.194 206.382,281.808 233.781,278.651 L233.781,278.651 Z" id="Shape" fill="#4A4A4A"></path>
                <path d="M399.99999,21 L88,327" id="Line" stroke="#FFFFFF" stroke-width="100" stroke-linecap="square"></path>
                <path d="M419.99999,0 L45,369" id="Line" stroke="#D0011B" stroke-width="60" stroke-linecap="square"></path>
            </g>
        </g>
    </g>
</svg>