<?xml version="1.0" encoding="UTF-8"?>
<svg width="480px" height="374px" viewBox="0 0 480 374" version="1.1" xmlns="http://www.w3.org/2000/svg" xmlns:xlink="http://www.w3.org/1999/xlink">
    <!-- Generator: Sketch 39.1 (31720) - http://www.bohemiancoding.com/sketch -->
    <title>online</title>
    <desc>Created with Sketch.</desc>
    <defs></defs>
    <g id="Page-1" stroke="none" stroke-width="1" fill="none" fill-rule="evenodd">
        <g id="online" transform="translate(-1.000000, 0.000000)" fill="#417505">
            <path d="M218.503,1.369 C312.229,-5.381 408.125,29.686 475.018,95.732 C483.783,104.755 482.64,120.539 473.393,128.808 C464.9,138.82 447.892,138.997 439.127,129.244 C381.903,74.153 301.109,44.363 221.777,50.288 C155.872,54.528 92.028,82.916 44.205,128.384 C39.952,132.731 34.521,136.3 28.267,136.606 C12.601,138.443 -1.887,122.07 1.494,106.746 C2.448,101.245 5.981,96.663 10.021,92.999 C66.009,39.392 141.172,6.469 218.503,1.369 L218.503,1.369 Z" id="Shape"></path>
            <path d="M216.183,93.282 C287.989,85.472 362.552,111.94 413.366,163.25 C421.305,172.32 420.316,187.151 411.494,195.302 C403.448,205.149 387.229,206.255 378.111,197.326 C345.577,165.252 301.593,144.886 255.985,141.552 C200.598,136.958 144.011,157.972 104.574,196.997 C95.48,206.609 78.541,205.515 70.356,195.289 C61.533,186.962 60.803,171.73 69.272,162.908 C108.356,123.802 161.209,98.924 216.183,93.282 L216.183,93.282 Z" id="Shape"></path>
            <path d="M226.796,183.97 C272.11,179.471 318.957,196.822 350.489,229.639 C359.123,238.626 358.123,254.093 349.028,262.409 C340.771,272.375 324.221,273.047 315.246,263.705 C297.472,245.46 272.852,233.927 247.362,232.537 C218.433,230.475 189.161,241.902 168.618,262.232 C163.565,267.911 156.061,271.397 148.381,270.491 C130.548,269.241 118.168,245.435 130.453,231.147 C155.26,204.243 190.492,187.575 226.796,183.97 L226.796,183.97 Z" id="Shape"></path>
            <path d="M233.781,268.651 C262.982,263.751 292.618,287.864 293.561,317.475 C296.27,346.511 270.638,374.064 241.498,373.426 C215.301,374.334 191.023,352.601 188.726,326.546 C184.991,299.194 206.382,271.808 233.781,268.651 L233.781,268.651 Z" id="Shape"></path>
        </g>
    </g>
</svg>